<svg xmlns="http://www.w3.org/2000/svg" xmlns:xlink="http://www.w3.org/1999/xlink" width="500" zoomAndPan="magnify" viewBox="0 0 375 374.999991" height="500" preserveAspectRatio="xMidYMid meet" version="1.0"><defs><g/></defs><g fill="#38b6ff" fill-opacity="1"><g transform="translate(66.536625, 293.756036)"><g><path d="M 106.085938 -41.597656 L 42.714844 -41.597656 L 42.714844 -91.847656 L 130.375 -91.847656 C 132.050781 -91.847656 133.445312 -93.246094 133.445312 -94.363281 L 133.445312 -129.816406 C 133.445312 -131.214844 132.050781 -132.332031 130.375 -132.332031 L 42.714844 -132.332031 L 42.714844 -182.863281 L 106.085938 -182.863281 L 106.085938 -223.34375 L 3.070312 -223.34375 C 1.394531 -223.34375 0 -221.945312 0 -220.828125 L 0 -2.511719 C 0 -1.394531 1.394531 0 3.070312 0 L 106.085938 0 Z M 106.085938 -41.597656 "/></g></g></g><g fill="#ffffff" fill-opacity="1"><g transform="translate(181.176487, 293.756036)"><g><path d="M 130.65625 -41.316406 L 15.914062 -41.316406 L 0.558594 -3.628906 C -0.277344 -1.394531 0.835938 0 3.628906 0 L 130.375 0 C 132.332031 0 133.726562 -1.394531 133.726562 -2.511719 L 133.726562 -38.804688 C 133.726562 -40.203125 132.609375 -41.316406 130.65625 -41.316406 Z M 3.070312 -181.746094 L 72.027344 -181.746094 L 32.941406 -84.03125 L 78.726562 -84.03125 L 133.167969 -219.714844 C 133.726562 -221.945312 132.609375 -223.34375 130.097656 -223.34375 L 3.070312 -223.34375 C 1.394531 -223.34375 0 -221.945312 0 -220.828125 L 0 -184.535156 C 0 -183.140625 1.394531 -181.746094 3.070312 -181.746094 Z M 3.070312 -181.746094 "/></g></g></g><g fill="#38b6ff" fill-opacity="1"><g transform="translate(205.358981, 238.783116)"><g><path d="M 19.390625 -9.875 C 19.390625 -6.289062 18.660156 -3.695312 17.203125 -2.09375 C 15.753906 -0.488281 13.394531 0.3125 10.125 0.3125 C 6.707031 0.3125 4.304688 -0.441406 2.921875 -1.953125 C 1.535156 -3.460938 0.84375 -6.101562 0.84375 -9.875 C 0.84375 -13.457031 1.570312 -16.046875 3.03125 -17.640625 C 4.488281 -19.234375 6.851562 -20.03125 10.125 -20.03125 C 13.539062 -20.03125 15.9375 -19.273438 17.3125 -17.765625 C 18.695312 -16.253906 19.390625 -13.625 19.390625 -9.875 Z M 6.375 -5.65625 C 6.65625 -5.132812 7.0625 -4.769531 7.59375 -4.5625 C 8.125 -4.351562 8.96875 -4.25 10.125 -4.25 C 11.28125 -4.25 12.125 -4.351562 12.65625 -4.5625 C 13.1875 -4.769531 13.585938 -5.132812 13.859375 -5.65625 C 14.066406 -6.070312 14.21875 -6.613281 14.3125 -7.28125 C 14.414062 -7.957031 14.46875 -8.820312 14.46875 -9.875 C 14.46875 -10.9375 14.414062 -11.804688 14.3125 -12.484375 C 14.21875 -13.171875 14.066406 -13.722656 13.859375 -14.140625 C 13.609375 -14.691406 13.21875 -15.078125 12.6875 -15.296875 C 12.15625 -15.515625 11.300781 -15.625 10.125 -15.625 C 8.945312 -15.625 8.09375 -15.515625 7.5625 -15.296875 C 7.03125 -15.078125 6.632812 -14.691406 6.375 -14.140625 C 6.164062 -13.722656 6.015625 -13.171875 5.921875 -12.484375 C 5.828125 -11.804688 5.78125 -10.9375 5.78125 -9.875 C 5.78125 -8.820312 5.828125 -7.957031 5.921875 -7.28125 C 6.015625 -6.613281 6.164062 -6.070312 6.375 -5.65625 Z M 6.375 -5.65625 "/></g></g></g><g fill="#38b6ff" fill-opacity="1"><g transform="translate(227.211123, 238.783116)"><g><path d="M 18.515625 -19.71875 L 18.515625 0 L 13.859375 0 L 6.0625 -11.375 L 6.0625 0 L 1.515625 0 L 1.515625 -19.71875 L 6.125 -19.71875 L 13.953125 -7.890625 L 13.953125 -19.71875 Z M 18.515625 -19.71875 "/></g></g></g><g fill="#38b6ff" fill-opacity="1"><g transform="translate(248.843183, 238.783116)"><g><path d="M 15.09375 -4.5625 L 15.09375 0 L 1.515625 0 L 1.515625 -19.71875 L 14.8125 -19.71875 L 14.8125 -15.3125 L 6.375 -15.3125 L 6.375 -12.046875 L 13.640625 -12.046875 L 13.640625 -7.953125 L 6.375 -7.953125 L 6.375 -4.5625 Z M 15.09375 -4.5625 "/></g></g></g></svg>