<svg xmlns="http://www.w3.org/2000/svg" xmlns:xlink="http://www.w3.org/1999/xlink" width="500" zoomAndPan="magnify" viewBox="0 0 375 374.999991" height="500" preserveAspectRatio="xMidYMid meet" version="1.0"><defs><g/></defs><g fill="#38b6ff" fill-opacity="1"><g transform="translate(67.721127, 169.403767)"><g><path d="M 23.15625 -7 L 23.15625 0 L 2.3125 0 L 2.3125 -30.25 L 22.71875 -30.25 L 22.71875 -23.5 L 9.796875 -23.5 L 9.796875 -18.484375 L 20.9375 -18.484375 L 20.9375 -12.203125 L 9.796875 -12.203125 L 9.796875 -7 Z M 23.15625 -7 "/></g></g></g><g fill="#38b6ff" fill-opacity="1"><g transform="translate(118.384638, 169.403767)"><g><path d="M 10.375 0 L -0.09375 -30.25 L 8.25 -30.25 L 12.734375 -15.296875 C 13.023438 -14.296875 13.378906 -12.96875 13.796875 -11.3125 C 14.210938 -9.65625 14.613281 -8.007812 15 -6.375 C 15.707031 -9.300781 16.210938 -11.359375 16.515625 -12.546875 C 16.828125 -13.734375 17.0625 -14.632812 17.21875 -15.25 L 21.671875 -30.25 L 29.765625 -30.25 L 19.34375 0 Z M 10.375 0 "/></g></g></g><g fill="#38b6ff" fill-opacity="1"><g transform="translate(174.35509, 169.403767)"><g><path d="M 23.15625 -7 L 23.15625 0 L 2.3125 0 L 2.3125 -30.25 L 22.71875 -30.25 L 22.71875 -23.5 L 9.796875 -23.5 L 9.796875 -18.484375 L 20.9375 -18.484375 L 20.9375 -12.203125 L 9.796875 -12.203125 L 9.796875 -7 Z M 23.15625 -7 "/></g></g></g><g fill="#38b6ff" fill-opacity="1"><g transform="translate(225.018601, 169.403767)"><g><path d="M 28.421875 -30.25 L 28.421875 0 L 21.28125 0 L 9.3125 -17.46875 L 9.3125 0 L 2.3125 0 L 2.3125 -30.25 L 9.40625 -30.25 L 21.421875 -12.109375 L 21.421875 -30.25 Z M 28.421875 -30.25 "/></g></g></g><g fill="#38b6ff" fill-opacity="1"><g transform="translate(282.050447, 169.403767)"><g><path d="M 24.5625 -30.25 L 24.5625 -23.5 L 16.3125 -23.5 L 16.3125 0 L 8.828125 0 L 8.828125 -23.5 L 0.578125 -23.5 L 0.578125 -30.25 Z M 24.5625 -30.25 "/></g></g></g><g fill="#ffffff" fill-opacity="1"><g transform="translate(92.780139, 235.002534)"><g><path d="M 23.40625 -7 L 23.40625 0 L 0.875 0 L 0.875 -7 L 14.046875 -23.5 L 2.265625 -23.5 L 2.265625 -30.25 L 22.484375 -30.25 L 22.484375 -23.5 L 9.359375 -7 Z M 23.40625 -7 "/></g></g></g><g fill="#ffffff" fill-opacity="1"><g transform="translate(143.395396, 235.002534)"><g><path d="M 29.765625 -15.15625 C 29.765625 -9.65625 28.644531 -5.671875 26.40625 -3.203125 C 24.175781 -0.742188 20.550781 0.484375 15.53125 0.484375 C 10.289062 0.484375 6.609375 -0.671875 4.484375 -2.984375 C 2.359375 -5.304688 1.296875 -9.363281 1.296875 -15.15625 C 1.296875 -20.65625 2.414062 -24.625 4.65625 -27.0625 C 6.894531 -29.507812 10.519531 -30.734375 15.53125 -30.734375 C 20.78125 -30.734375 24.460938 -29.570312 26.578125 -27.25 C 28.703125 -24.9375 29.765625 -20.90625 29.765625 -15.15625 Z M 9.796875 -8.6875 C 10.210938 -7.882812 10.828125 -7.320312 11.640625 -7 C 12.460938 -6.675781 13.757812 -6.515625 15.53125 -6.515625 C 17.300781 -6.515625 18.597656 -6.675781 19.421875 -7 C 20.242188 -7.320312 20.863281 -7.882812 21.28125 -8.6875 C 21.601562 -9.332031 21.832031 -10.164062 21.96875 -11.1875 C 22.113281 -12.21875 22.1875 -13.539062 22.1875 -15.15625 C 22.1875 -16.789062 22.113281 -18.128906 21.96875 -19.171875 C 21.832031 -20.222656 21.601562 -21.070312 21.28125 -21.71875 C 20.894531 -22.550781 20.289062 -23.132812 19.46875 -23.46875 C 18.644531 -23.8125 17.332031 -23.984375 15.53125 -23.984375 C 13.726562 -23.984375 12.414062 -23.8125 11.59375 -23.46875 C 10.78125 -23.132812 10.179688 -22.550781 9.796875 -21.71875 C 9.472656 -21.070312 9.238281 -20.222656 9.09375 -19.171875 C 8.945312 -18.128906 8.875 -16.789062 8.875 -15.15625 C 8.875 -13.539062 8.945312 -12.21875 9.09375 -11.1875 C 9.238281 -10.164062 9.472656 -9.332031 9.796875 -8.6875 Z M 9.796875 -8.6875 "/></g></g></g><g fill="#ffffff" fill-opacity="1"><g transform="translate(200.764945, 235.002534)"><g><path d="M 28.421875 -30.25 L 28.421875 0 L 21.28125 0 L 9.3125 -17.46875 L 9.3125 0 L 2.3125 0 L 2.3125 -30.25 L 9.40625 -30.25 L 21.421875 -12.109375 L 21.421875 -30.25 Z M 28.421875 -30.25 "/></g></g></g><g fill="#ffffff" fill-opacity="1"><g transform="translate(257.796791, 235.002534)"><g><path d="M 23.15625 -7 L 23.15625 0 L 2.3125 0 L 2.3125 -30.25 L 22.71875 -30.25 L 22.71875 -23.5 L 9.796875 -23.5 L 9.796875 -18.484375 L 20.9375 -18.484375 L 20.9375 -12.203125 L 9.796875 -12.203125 L 9.796875 -7 Z M 23.15625 -7 "/></g></g></g></svg>